<?xml version="1.0" encoding="UTF-8" standalone="no"?>
<!-- Created with Inkscape (http://www.inkscape.org/) -->

<svg
   width="64"
   height="64"
   viewBox="0 0 16.933333 16.933334"
   version="1.1"
   id="svg5"
   xmlns="http://www.w3.org/2000/svg"
   xmlns:svg="http://www.w3.org/2000/svg">
  <defs
     id="defs2" />
  <g
     id="layer1">
    <g
       id="g17780"
       transform="translate(27.46862,-37.609505)">
      <g
         id="path17364">
        <path
           style="color:#000000;fill:#e6e6e6;stroke-width:2.18327;stroke-linecap:round;-inkscape-stroke:none"
           d="m -26.377524,38.701007 h 14.750065"
           id="path17691" />
        <path
           style="color:#000000;fill:#e6e6e6;stroke-linecap:round;-inkscape-stroke:none"
           d="m -26.376953,37.609375 a 1.091635,1.091635 0 0 0 -1.091797,1.091797 1.091635,1.091635 0 0 0 1.091797,1.091797 h 14.75 a 1.091635,1.091635 0 0 0 1.091797,-1.091797 1.091635,1.091635 0 0 0 -1.091797,-1.091797 z"
           id="path17688" />
      </g>
      <g
         id="path17548">
        <path
           style="color:#000000;fill:#e6e6e6;stroke-width:2.18327;stroke-linecap:round;-inkscape-stroke:none"
           d="m -26.377524,46.07604 h 14.750065"
           id="path17685" />
        <path
           style="color:#000000;fill:#e6e6e6;stroke-linecap:round;-inkscape-stroke:none"
           d="m -26.376953,44.984375 a 1.091635,1.091635 0 0 0 -1.091797,1.091797 1.091635,1.091635 0 0 0 1.091797,1.091797 h 14.75 a 1.091635,1.091635 0 0 0 1.091797,-1.091797 1.091635,1.091635 0 0 0 -1.091797,-1.091797 z"
           id="path17682" />
      </g>
      <g
         id="path17550">
        <path
           style="color:#000000;fill:#e6e6e6;stroke-width:2.18327;stroke-linecap:round;-inkscape-stroke:none"
           d="m -26.377524,53.451072 h 14.750065"
           id="path17679" />
        <path
           style="color:#000000;fill:#e6e6e6;stroke-linecap:round;-inkscape-stroke:none"
           d="m -26.376953,52.359375 a 1.091635,1.091635 0 0 0 -1.091797,1.091797 1.091635,1.091635 0 0 0 1.091797,1.091797 h 14.75 a 1.091635,1.091635 0 0 0 1.091797,-1.091797 1.091635,1.091635 0 0 0 -1.091797,-1.091797 z"
           id="path17676" />
      </g>
    </g>
  </g>
</svg>
