<?xml version="1.0" encoding="UTF-8" standalone="no"?>
<!-- Created with Inkscape (http://www.inkscape.org/) -->

<svg
   width="64"
   height="64"
   viewBox="0 0 16.933333 16.933334"
   version="1.1"
   id="svg5"
   xmlns="http://www.w3.org/2000/svg"
   xmlns:svg="http://www.w3.org/2000/svg">
  <defs
     id="defs2" />
  <g
     id="layer1">
    <g
       id="g2260"
       transform="matrix(0.26458333,0,0,0.26458333,6.2265279,-21.762195)">
      <circle
         style="fill:#ffffff;stroke:#000000;stroke-width:0.882726;stroke-linecap:round;paint-order:fill markers stroke"
         id="path846"
         cx="8.4666662"
         cy="114.25082"
         r="31.558638" />
      <path
         id="path1040"
         style="fill:#000000;stroke:none;stroke-width:12.6285;stroke-linecap:round;paint-order:fill markers stroke"
         d="m 31.841797,346.16602 a 54.203036,54.203036 0 0 0 -54.203125,54.20312 54.203036,54.203036 0 0 0 28.2890624,47.56641 c -4.5833984,1.23685 -9.1386523,2.79798 -13.6289063,4.75 -15.3486741,7.9339 -25.3369911,33.739 -30.5644531,75.41015 A 119.27674,119.27674 0 0 0 32,551.0918 119.27674,119.27674 0 0 0 101.45117,528.69727 c -7.813282,-33.59552 -14.953876,-69.53805 -30.542967,-75.91993 -4.34273,-1.88322 -8.829016,-3.44731 -13.412109,-4.70117 A 54.203036,54.203036 0 0 0 86.044922,400.36914 54.203036,54.203036 0 0 0 31.841797,346.16602 Z"
         transform="scale(0.26458333)" />
    </g>
  </g>
</svg>
